<svg xmlns="http://www.w3.org/2000/svg" width="34" height="34" viewBox="0 0 34 34">
    <defs>
        <style>
            .cls-2,.cls-3{fill:none;stroke:#141519;stroke-width:1.3px}.cls-2{stroke-miterlimit:10}.cls-3{stroke-linecap:round;stroke-linejoin:round}
        </style>
    </defs>
    <g id="Camera" transform="translate(-288 -78)">
        <g id="Ellipse_168" fill="#eff2f7" stroke="#fff" stroke-width="2px" transform="translate(288 78)">
            <circle cx="17" cy="17" r="17" stroke="none"/>
            <circle cx="17" cy="17" r="16" fill="none"/>
        </g>
        <g id="Group_14179" transform="translate(295.949 88.095)">
            <path id="Path_93" d="M408.983 591.341a4.006 4.006 0 0 1-3.19-1.065 4.007 4.007 0 0 1-1.065-3.19v-5.352a4.123 4.123 0 0 1 1.065-3.247 3.961 3.961 0 0 1 3.19-1.084h9.683a3.963 3.963 0 0 1 3.19 1.084 4.123 4.123 0 0 1 1.065 3.247v5.352a4.007 4.007 0 0 1-1.065 3.19 4.007 4.007 0 0 1-3.19 1.065z" class="cls-2" transform="translate(-404.729 -577.404)"/>
            <circle id="Ellipse_12" cx="4" cy="4" r="4" class="cls-2" transform="translate(5.051 2.905)"/>
            <path id="Line_39" d="M0 0L1 0" class="cls-3" transform="translate(14.051 2.905)"/>
            <path id="Path_95" d="M413.338 582.405a1.607 1.607 0 0 0-1.608 1.608" class="cls-3" transform="translate(-404.224 -577.043)"/>
        </g>
    </g>
</svg>
