<svg xmlns="http://www.w3.org/2000/svg" width="18" height="18" viewBox="0 0 18 18">
    <g>
        <path fill="#141519" d="M724.808 1808.133a3.81 3.81 0 0 0-2.811-1.119 4.9 4.9 0 0 0-4 2.468 4.9 4.9 0 0 0-4-2.468 3.814 3.814 0 0 0-2.812 1.119 4.632 4.632 0 0 0-1.188 3.354c.005 5.111 7.438 9.276 7.755 9.451a.5.5 0 0 0 .248.062.5.5 0 0 0 .242-.062c.316-.175 7.748-4.339 7.755-9.45a4.629 4.629 0 0 0-1.189-3.355z" transform="translate(-709 -1805)"/>
        <path fill="none" d="M0 0H18V18H0z" transform="translate(-709 -1805) translate(709 1805)"/>
    </g>
</svg>
