<svg xmlns="http://www.w3.org/2000/svg" width="18.792" height="18.8" viewBox="0 0 18.792 18.8">
    <defs>
        <style>
            .cls-1{fill:none;stroke:#141519;stroke-width:1.8px;stroke-linecap:round;stroke-linejoin:round}
        </style>
    </defs>
    <g id="Group_14392" transform="translate(0.9 0.9)">
        <path id="Path_108" d="M417.73 419.9v3.5l-4-3" class="cls-1" transform="translate(-404.281 -406.401)"/>
        <path id="Path_109" fill="none" stroke="#141519" stroke-miterlimit="10" stroke-width="1.8px" d="M414.793 422.4h-2.509c-2.637 0-3.9-.646-4.914-1.689-1.014-1.045-1.64-2.348-1.64-5.065v-.361c0-2.766.626-4.091 1.64-5.155 1.014-1.062 2.277-1.72 4.914-1.72l3.883-.012c2.637 0 3.9.658 4.914 1.72 1.013 1.063 1.64 2.388 1.64 5.153v.387c0 2.717-.628 3.876-1.64 4.919a5.255 5.255 0 0 1-1.766 1.238" transform="translate(-405.73 -408.394)"/>
        <path id="Line_48" d="M0 0L7.5 0" class="cls-1" transform="translate(5.061 4.559)"/>
        <path id="Line_49" d="M0 0L4.286 0" class="cls-1" transform="translate(4.743 9.09)"/>
    </g>
</svg>
