<svg xmlns="http://www.w3.org/2000/svg" width="59" height="59" viewBox="0 0 59 59">
    <g>
        <path fill="#eff2f7" d="M5488.9 2298.659a21.036 21.036 0 0 0-8.024-7.45 23.717 23.717 0 0 0-11.188-2.791 23.044 23.044 0 0 0-10.9 2.773 22.119 22.119 0 0 0-7.975 7.2 28.016 28.016 0 1 1 38.086.265zm-19.213-34.942a10.129 10.129 0 1 0 10.129 10.128 10.139 10.139 0 0 0-10.129-10.127z" transform="translate(-18.5 -152.5) translate(-5422 -2096.001)"/>
        <path fill="none" stroke="#eff2f7" stroke-width="3px" d="M5470 2250a28 28 0 1 1-28 28 28 28 0 0 1 28-28z" transform="translate(-18.5 -152.5) translate(-5422 -2096)"/>
    </g>
</svg>
