<svg xmlns="http://www.w3.org/2000/svg" width="19.385" height="19.527" viewBox="0 0 19.385 19.527">
    <g>
        <path fill="none" stroke="#141519" stroke-miterlimit="10" stroke-width="1.3px" d="M407.6 662.658l1.862-1.863a1.318 1.318 0 0 1 1.863 0l2.793 2.793a1.318 1.318 0 0 1 0 1.863l-.96.96c-.93.93-1.765 1.9.495 4.16s3.23 1.426 4.161.495l.96-.959a1.315 1.315 0 0 1 1.862 0l2.793 2.793a1.314 1.314 0 0 1 0 1.862l-1.862 1.863c-2.793 2.793-6.518 2.793-11.64-2.329s-5.115-8.845-2.327-11.638z" transform="translate(-753.355 -759.497) translate(348.27 99.857)"/>
    </g>
</svg>
