<svg xmlns="http://www.w3.org/2000/svg" width="18" height="18" viewBox="0 0 18 18">
    <g>
        <g>
            <path d="M334 1697a3.5 3.5 0 1 0 3.5 3.5 3.5 3.5 0 0 0-3.5-3.5zm0 6a2.5 2.5 0 1 1 2.5-2.5 2.5 2.5 0 0 1-2.5 2.5z" transform="translate(-325 -1693)"/>
            <path d="M340.385 1695.653c-1.152-1.173-2.535-1.651-4.775-1.651h-3.218c-2.239 0-3.622.478-4.774 1.651S326 1698.229 326 1700.5v3.105c0 2.238.47 3.621 1.621 4.772a5.483 5.483 0 0 0 .511.448c.005 0 .008.01.014.014h.009a6.507 6.507 0 0 0 4.237 1.156h3.218a6.491 6.491 0 0 0 4.26-1.172h.007l.009-.008a5.613 5.613 0 0 0 .5-.438c1.151-1.152 1.621-2.534 1.621-4.772v-3.105c-.007-2.271-.473-3.676-1.622-4.847zM332.392 1709a6.075 6.075 0 0 1-3.25-.689 6.316 6.316 0 0 1 9.751-.019 6.03 6.03 0 0 1-3.283.708zm8.611-5.393c0 2.271-.531 3.267-1.328 4.065a7.311 7.311 0 0 0-11.32.025l-.027-.025c-.8-.8-1.328-1.794-1.328-4.065v-3.107c0-2.317.532-3.334 1.332-4.148s1.792-1.352 4.06-1.352h3.218c2.269 0 3.265.541 4.061 1.352s1.329 1.834 1.329 4.148z" transform="translate(-325 -1693)"/>
        </g>
        <path fill="none" d="M0 0H18V18H0z" transform="translate(-325 -1693) translate(325 1693)"/>
    </g>
</svg>
