<svg xmlns="http://www.w3.org/2000/svg" width="23.661" height="15.768" viewBox="0 0 23.661 15.768">
    <defs>
        <style>
            .cls-1{fill:none;stroke:#141519;stroke-width:1.3px;stroke-linecap:round;stroke-linejoin:round}
        </style>
    </defs>
    <g id="Group_14256" transform="translate(-752.349 -733.617)">
        <path id="Line_38" d="M0 0L1 0" class="cls-1" transform="translate(764.68 738)"/>
        <path id="Path_90" d="M417.73 639.35l5.261-3.946v11.837l-5.261-3.941" class="cls-1" transform="translate(352.369 100.17)"/>
        <path id="Path_94" fill="none" stroke="#141519" stroke-miterlimit="10" stroke-width="1.3px" d="M409.234 648.878a4.239 4.239 0 0 1-3.378-1.128 4.238 4.238 0 0 1-1.127-3.376V639a4.369 4.369 0 0 1 1.127-3.439 4.2 4.2 0 0 1 3.378-1.147h8.09a4.2 4.2 0 0 1 3.378 1.147 4.368 4.368 0 0 1 1.127 3.439v5.377a4.238 4.238 0 0 1-1.127 3.376 4.239 4.239 0 0 1-3.378 1.128z" transform="translate(348.27 99.857)"/>
    </g>
</svg>
